# xmcd
#
# Track frame offsets: 
#        150
#        5025
#        17175
#        34475
#        52715
#        71593
#        91483
#        108553
#        128393
#        137315
#        161170
#        179043
#        193225
#        207230
#        238063
#
# Disc length: 3451 seconds
#
# Revision: 4
# Processed by: cddbd v1.5PL3 Copyright (c) Steve Scherf et al.
# Submitted via: ExactAudioCopy v0.95a5
#
DISCID=d40d790f
DTITLE=OutKast - ATLiens
DYEAR=1996
DGENRE=Rap
TTITLE0=You May Die (Intro)
TTITLE1=Two Dope Boyz (In a Cadillac)
TTITLE2=ATLiens
TTITLE3=Wheelz of Steel
TTITLE4=Jazzy Belle
TTITLE5=Elevators (Me and You)
TTITLE6=Ova Da Wudz
TTITLE7=Babylon
TTITLE8=Wailin'
TTITLE9=Mainstream
TTITLE10=Decatur Psalm
TTITLE11=Millennium
TTITLE12=E.T. (Extraterrestrial)
TTITLE13=13th Floor - Growing Old
TTITLE14=Elevators (ONP 86 Remix)
EXTD=HSI
EXTT0=
EXTT1=
EXTT2=
EXTT3=
EXTT4=
EXTT5=
EXTT6=
EXTT7=
EXTT8=
EXTT9=
EXTT10=
EXTT11=
EXTT12=
EXTT13=
EXTT14=
PLAYORDER=
